<?xml version="1.0" encoding="utf-8"?>
<!-- Generator: Adobe Illustrator 27.6.1, SVG Export Plug-In . SVG Version: 6.00 Build 0)  -->
<svg version="1.1" id="Layer_1" xmlns="http://www.w3.org/2000/svg" xmlns:xlink="http://www.w3.org/1999/xlink" x="0px" y="0px"
	 viewBox="0 0 1440 1031" style="enable-background:new 0 0 1440 1031;" xml:space="preserve">
<style type="text/css">
	.st0{display:none;fill:#F7CE7C;}
	.st1{display:none;opacity:0.68;fill:url(#SVGID_1_);enable-background:new    ;}
	.st2{display:none;opacity:0.68;fill:url(#SVGID_00000114791268087549841600000005531782309232886185_);enable-background:new    ;}
	.st3{fill:#4F84F6;}
	.st4{fill:#1568F4;}
	.st5{fill:#065CD0;}
	.st6{fill:#0854B3;}
	.st7{fill:#15CB74;}
	.st8{fill:#12B162;}
	.st9{fill:#41D794;}
	.st10{fill:#119852;}
</style>
<g id="a">
</g>
<g id="b">
	<g id="c">
		<g>
			<g>
				<path class="st0" d="M22.2,0h1395.5c12.3,0,22.2,10,22.2,22.2v986.5c0,12.3-10,22.2-22.2,22.2H22.2C10,1031,0,1021,0,1008.8
					V22.2C0,10,10,0,22.2,0z"/>
				
					<linearGradient id="SVGID_1_" gradientUnits="userSpaceOnUse" x1="240.341" y1="-1.1102" x2="240.341" y2="862.5958" gradientTransform="matrix(1 0 0 -1 0 1029.8899)">
					<stop  offset="0" style="stop-color:#FFFFFF"/>
					<stop  offset="0.69" style="stop-color:#F8B627"/>
				</linearGradient>
				<path class="st1" d="M319.3,985.3l143.2-228.8c16.8-26.9,22.3-59.4,15.2-90.3l-60.6-263c-7.1-30.9-26.2-57.8-53.1-74.6
					L135,185.5c-26.9-16.8-59.4-22.3-90.3-15.2L0,180.6v828.1c0,12.3,9.9,22.2,22.2,22.2h244.4
					C288.2,1021.4,306.6,1005.5,319.3,985.3z"/>
				
					<linearGradient id="SVGID_00000108308406683827969670000001840185164194302342_" gradientUnits="userSpaceOnUse" x1="1178.089" y1="287.9239" x2="1178.089" y2="1029.8899" gradientTransform="matrix(1 0 0 -1 0 1029.8899)">
					<stop  offset="0.15" style="stop-color:#F8B627"/>
					<stop  offset="1" style="stop-color:#FFFFFF"/>
				</linearGradient>
				
					<path style="display:none;opacity:0.68;fill:url(#SVGID_00000108308406683827969670000001840185164194302342_);enable-background:new    ;" d="
					M1417.8,0H1030l-95.6,152.8c-16.8,26.9-22.3,59.4-15.2,90.3l60.6,263c7.1,30.9,26.2,57.8,53.2,74.6l228.9,143.1
					c26.9,16.8,59.4,22.3,90.3,15.2l87.8-20.2V22.2C1440,9.9,1430,0,1417.8,0L1417.8,0z"/>
			</g>
			<g>
				<polygon class="st3" points="445.8,436.1 350.9,529.2 298.5,407.1 395.5,302.9 				"/>
				<polygon class="st4" points="350.9,529.2 445.8,436.1 298.5,407.1 				"/>
				<polygon class="st5" points="350.9,529.2 445.8,436.1 372.1,421.6 				"/>
				<polygon class="st6" points="350.9,529.2 391.8,425.5 372.1,421.6 				"/>
				<polygon class="st6" points="445.8,436.1 372.1,421.6 369.8,433.3 369.8,433.3 				"/>
				<polygon class="st5" points="298.5,407.1 369.8,433.3 372.1,421.6 				"/>
			</g>
			<g>
				
					<rect x="1187.5" y="240" transform="matrix(0.7985 -0.602 0.602 0.7985 66.4141 819.9864)" class="st7" width="141.5" height="141.5"/>
				<polygon class="st8" points="1272.1,211.6 1244.3,409.7 1357.3,324.6 				"/>
				<polygon class="st9" points="1272.1,211.6 1159.2,296.9 1357.3,324.6 				"/>
				<polygon class="st10" points="1258.2,310.7 1244.3,409.7 1278.1,313.5 				"/>
				<polygon class="st10" points="1258.2,310.7 1256.3,324 1357.3,324.6 				"/>
				<polygon class="st8" points="1159.2,296.9 1256.3,324 1258.2,310.7 				"/>
			</g>
		</g>
	</g>
</g>
</svg>
