<?xml version="1.0" encoding="UTF-8"?>
<svg id="Layer_2" data-name="Layer 2" xmlns="http://www.w3.org/2000/svg" viewBox="0 0 351.93 94.44">
  <defs>
    <style>
      .cls-1 {
        fill: #00a99d;
      }

      .cls-2 {
        fill: #f35910;
      }

      .cls-3 {
        fill: #f01378;
      }

      .cls-4 {
        fill: #ff7bac;
      }

      .cls-5 {
        fill: #93278f;
      }

      .cls-6 {
        fill: #213547;
      }

      .cls-7 {
        fill: #2d8e4b;
      }
    </style>
  </defs>
  <g id="Layer_1-2" data-name="Layer 1">
    <g>
      <path class="cls-6" d="m134.41,80.5c-1.62,2.07-3.66,3.66-6.13,4.79-2.47,1.12-5.03,1.68-7.68,1.68s-4.89-.4-7.11-1.21-4.16-1.97-5.8-3.47c-1.64-1.5-2.93-3.31-3.88-5.43-.94-2.11-1.42-4.47-1.42-7.08s.47-4.96,1.42-7.08c.94-2.11,2.24-3.92,3.88-5.43,1.64-1.5,3.57-2.66,5.8-3.47s4.59-1.21,7.11-1.21c2.34,0,4.46.4,6.37,1.21s3.53,1.97,4.85,3.47c1.33,1.51,2.35,3.31,3.07,5.43.72,2.11,1.08,4.47,1.08,7.08v3.17h-23.46c.41,1.93,1.28,3.47,2.63,4.62,1.35,1.15,3.01,1.72,4.99,1.72,1.66,0,3.07-.37,4.21-1.11,1.15-.74,2.15-1.7,3-2.87l7.08,5.19Zm-8.56-14.42c.04-1.71-.52-3.17-1.69-4.38-1.17-1.21-2.67-1.82-4.52-1.82-1.12,0-2.11.18-2.97.54-.85.36-1.58.82-2.19,1.38-.61.56-1.08,1.21-1.42,1.96-.34.74-.53,1.52-.57,2.33h13.35Z"/>
      <path class="cls-6" d="m164.41,61.49h-8.9v10.92c0,.9.04,1.72.13,2.46.09.74.29,1.38.61,1.92.31.54.8.96,1.45,1.25.65.29,1.52.44,2.59.44.54,0,1.25-.06,2.12-.17s1.54-.37,1.99-.78v8.43c-1.12.4-2.29.67-3.5.81s-2.4.2-3.57.2c-1.71,0-3.28-.18-4.72-.54-1.44-.36-2.7-.93-3.78-1.72-1.08-.79-1.92-1.81-2.53-3.07-.61-1.26-.91-2.79-.91-4.58v-15.57h-6.47v-8.09h6.47v-9.71h10.11v9.71h8.9v8.09Z"/>
      <path class="cls-6" d="m179.64,35.2v22.65h.13c.22-.63.61-1.26,1.15-1.89.54-.63,1.19-1.19,1.96-1.69.76-.49,1.66-.9,2.7-1.21,1.03-.31,2.16-.47,3.37-.47,2.56,0,4.63.39,6.2,1.18,1.57.79,2.8,1.88,3.67,3.27.88,1.39,1.47,3.03,1.79,4.92.31,1.89.47,3.93.47,6.13v18.07h-10.11v-16.04c0-.94-.03-1.92-.1-2.93-.07-1.01-.27-1.94-.61-2.8-.34-.85-.85-1.55-1.55-2.09s-1.7-.81-3-.81-2.36.24-3.17.71c-.81.47-1.43,1.1-1.85,1.89-.43.79-.71,1.67-.84,2.66-.13.99-.2,2.02-.2,3.1v16.31h-10.11v-50.96h10.11Z"/>
      <path class="cls-6" d="m239.23,80.5c-1.62,2.07-3.66,3.66-6.13,4.79-2.47,1.12-5.03,1.68-7.68,1.68s-4.89-.4-7.11-1.21-4.16-1.97-5.8-3.47c-1.64-1.5-2.93-3.31-3.88-5.43-.94-2.11-1.42-4.47-1.42-7.08s.47-4.96,1.42-7.08c.94-2.11,2.24-3.92,3.88-5.43,1.64-1.5,3.57-2.66,5.8-3.47s4.59-1.21,7.11-1.21c2.34,0,4.46.4,6.37,1.21,1.91.81,3.53,1.97,4.85,3.47,1.33,1.51,2.35,3.31,3.07,5.43.72,2.11,1.08,4.47,1.08,7.08v3.17h-23.46c.41,1.93,1.28,3.47,2.63,4.62,1.35,1.15,3.01,1.72,4.99,1.72,1.66,0,3.07-.37,4.21-1.11,1.15-.74,2.15-1.7,3-2.87l7.08,5.19Zm-8.56-14.42c.04-1.71-.52-3.17-1.69-4.38-1.17-1.21-2.67-1.82-4.52-1.82-1.12,0-2.11.18-2.97.54-.85.36-1.58.82-2.19,1.38-.61.56-1.08,1.21-1.42,1.96-.34.74-.53,1.52-.57,2.33h13.35Z"/>
      <path class="cls-6" d="m246.91,53.4h10.11v5.26h.13c1.08-2.02,2.36-3.54,3.84-4.55,1.48-1.01,3.35-1.52,5.59-1.52.58,0,1.17.02,1.75.07s1.12.13,1.62.27v9.23c-.72-.22-1.43-.39-2.12-.51-.7-.11-1.43-.17-2.19-.17-1.93,0-3.46.27-4.58.81-1.12.54-1.99,1.29-2.6,2.26-.61.97-1,2.12-1.18,3.47-.18,1.35-.27,2.83-.27,4.45v13.68h-10.11v-32.76Z"/>
      <path class="cls-6" d="m273.67,43.09c0-1.62.57-3,1.72-4.15,1.15-1.15,2.53-1.72,4.15-1.72s3,.57,4.15,1.72c1.15,1.15,1.72,2.53,1.72,4.15s-.57,3-1.72,4.15c-1.15,1.15-2.53,1.72-4.15,1.72s-3-.57-4.15-1.72-1.72-2.53-1.72-4.15Zm.81,10.31h10.11v32.76h-10.11v-32.76Z"/>
      <path class="cls-6" d="m310.41,63.04c-1.48-1.84-3.44-2.76-5.86-2.76-.85,0-1.69.2-2.49.61-.81.4-1.21,1.1-1.21,2.09,0,.81.42,1.41,1.25,1.79.83.38,1.89.72,3.17,1.01,1.28.29,2.65.61,4.11.94,1.46.34,2.83.87,4.11,1.58,1.28.72,2.34,1.7,3.17,2.93.83,1.24,1.25,2.89,1.25,4.95s-.46,3.85-1.38,5.22c-.92,1.37-2.1,2.47-3.54,3.3-1.44.83-3.06,1.42-4.85,1.75-1.8.34-3.57.5-5.33.5-2.29,0-4.61-.33-6.94-.98-2.34-.65-4.31-1.81-5.93-3.47l6.13-6.81c.94,1.17,1.99,2.06,3.13,2.66,1.15.61,2.48.91,4.01.91,1.17,0,2.22-.17,3.17-.5.94-.34,1.42-.95,1.42-1.85s-.42-1.49-1.25-1.92c-.83-.43-1.89-.79-3.17-1.08-1.28-.29-2.65-.61-4.11-.94-1.46-.34-2.83-.84-4.11-1.52-1.28-.67-2.34-1.63-3.17-2.87-.83-1.24-1.25-2.89-1.25-4.95,0-1.93.39-3.59,1.18-4.99.79-1.39,1.82-2.54,3.1-3.44,1.28-.9,2.75-1.56,4.42-1.99,1.66-.43,3.35-.64,5.06-.64,2.16,0,4.34.31,6.54.94,2.2.63,4.07,1.75,5.59,3.37l-6.2,6.13Z"/>
      <path class="cls-6" d="m345.26,63.98c-.5-.72-1.19-1.31-2.09-1.79-.9-.47-1.87-.71-2.9-.71-2.56,0-4.55.76-5.97,2.29-1.42,1.53-2.12,3.53-2.12,6s.71,4.47,2.12,6c1.42,1.53,3.4,2.29,5.97,2.29,1.12,0,2.09-.25,2.9-.74.81-.49,1.5-1.08,2.09-1.75l6.67,7.01c-1.57,1.62-3.43,2.75-5.56,3.4-2.13.65-4.17.98-6.1.98-2.52,0-4.89-.4-7.11-1.21-2.22-.81-4.16-1.97-5.8-3.47-1.64-1.5-2.93-3.31-3.88-5.43-.94-2.11-1.42-4.47-1.42-7.08s.47-4.96,1.42-7.08c.94-2.11,2.24-3.92,3.88-5.43,1.64-1.5,3.57-2.66,5.8-3.47,2.22-.81,4.59-1.21,7.11-1.21,1.93,0,3.96.33,6.1.98,2.13.65,3.99,1.79,5.56,3.4l-6.67,7.01Z"/>
    </g>
    <polygon class="cls-3" points="80 29.44 97.17 55.29 108.78 26.44 80 29.44"/>
    <polygon class="cls-2" points="110.78 26.44 105.12 40.44 126.16 40.44 110.78 26.44"/>
    <g>
      <polygon class="cls-5" points="3.54 12.34 46.43 52.69 24.43 16.56 3.54 12.34"/>
      <polygon class="cls-2" points="15.36 0 25.43 16.56 47.43 52.69 65.21 12.52 15.36 0"/>
    </g>
    <polygon class="cls-7" points="46.71 59.11 95.17 59.29 56.98 79.22 46.71 59.11"/>
    <polygon class="cls-4" points="44.71 60.11 0 94.44 54.98 80.22 44.71 60.11"/>
    <polygon class="cls-1" points="47.71 57.11 67.21 13.52 96.17 57.29 47.71 57.11"/>
  </g>
</svg>