<?xml version="1.0" encoding="UTF-8"?>
<svg id="Layer_2" data-name="Layer 2" xmlns="http://www.w3.org/2000/svg" viewBox="0 0 1111 472.98">
  <defs>
    <style>
      .cls-1 {
        fill: #0081c1;
      }

      .cls-2 {
        fill: #fff255;
      }

      .cls-3 {
        fill: #f43f00;
      }

      .cls-4 {
        fill: #ffd546;
      }

      .cls-5 {
        fill: #ffac1a;
      }

      .cls-6 {
        fill: #bcc1c1;
      }

      .cls-7 {
        fill: #718c00;
      }

      .cls-8 {
        fill: #2a2b2b;
      }

      .cls-9 {
        fill: #484949;
      }

      .cls-10 {
        fill: #82a80b;
      }
    </style>
  </defs>
  <g id="Layer_1-2" data-name="Layer 1">
    <g>
      <path class="cls-8" d="m846.25,340.8c3.15-.9,6.48-1.39,9.92-1.39s6.76.49,9.92,1.39v-15.39c-6.53,1.4-13.14,2.78-19.83,4.13v11.26Z"/>
      <path class="cls-3" d="m846.25,340.8c-15.13,4.31-26.22,18.23-26.22,34.75,0,19.95,16.18,36.13,36.14,36.13s36.13-16.18,36.13-36.13c0-16.52-11.08-30.44-26.22-34.75-3.15-.9-6.48-1.39-9.92-1.39s-6.76.49-9.92,1.39Zm29.75,34.75c0,10.95-8.88,19.83-19.83,19.83s-19.83-8.88-19.83-19.83,8.88-19.83,19.83-19.83,19.83,8.87,19.83,19.83Z"/>
      <path class="cls-8" d="m836.34,375.55c0,10.95,8.88,19.83,19.83,19.83s19.83-8.88,19.83-19.83-8.88-19.83-19.83-19.83-19.83,8.87-19.83,19.83Z"/>
      <path class="cls-8" d="m256.64,375.05c-1.73-.1-3.45-.21-5.17-.32l-6.43,15.35c3.75.45,7.49,1.4,11.15,2.93,3.65,1.53,6.96,3.53,9.91,5.88l6.99-16.69h-.49c-6.34,0-12.02-2.77-15.95-7.16Z"/>
      <path class="cls-3" d="m245.04,390.08c-17.99-2.15-35.94,7.7-43.29,25.23-8.88,21.19,1.11,45.55,22.3,54.43,21.19,8.87,45.56-1.11,54.43-22.29,7.35-17.54,1.77-37.24-12.39-48.55-2.95-2.35-6.26-4.35-9.91-5.88-3.65-1.53-7.4-2.49-11.15-2.93Zm16.13,50.12c-4.86,11.62-18.24,17.1-29.87,12.23-11.63-4.87-17.11-18.25-12.24-29.87,4.87-11.64,18.24-17.12,29.88-12.24,11.63,4.87,17.11,18.24,12.23,29.88Z"/>
      <path class="cls-8" d="m248.94,410.32c-11.63-4.87-25,.61-29.88,12.24-4.87,11.62.61,25,12.24,29.87,11.63,4.87,25-.61,29.87-12.23,4.87-11.64-.61-25.02-12.23-29.88Z"/>
      <path class="cls-8" d="m304.78,398.9c2.95-2.35,6.26-4.35,9.91-5.88,3.65-1.53,7.4-2.49,11.14-2.93l-3.3-7.87h-24.74l6.99,16.69Z"/>
      <path class="cls-3" d="m304.78,398.9c-14.15,11.31-19.73,31.01-12.39,48.55,8.87,21.19,33.24,31.17,54.43,22.29,21.19-8.87,31.17-33.24,22.3-54.43-7.34-17.54-25.3-27.39-43.29-25.23-3.75.45-7.49,1.4-11.14,2.93-3.65,1.53-6.96,3.53-9.91,5.88Zm47.03,23.67c4.87,11.62-.61,25-12.24,29.87-11.63,4.87-25.01-.61-29.87-12.23-4.87-11.64.61-25.02,12.24-29.88,11.63-4.87,25,.61,29.87,12.24Z"/>
      <path class="cls-8" d="m321.94,410.32c-11.63,4.87-17.11,18.24-12.24,29.88,4.86,11.62,18.24,17.1,29.87,12.23,11.63-4.87,17.11-18.25,12.24-29.87-4.87-11.64-18.24-17.12-29.87-12.24Z"/>
      <path class="cls-6" d="m19.53,249.83c-10.79,0-19.53,8.74-19.53,19.53s8.75,19.54,19.53,19.54h7.06v-39.07h-7.06Z"/>
      <path class="cls-8" d="m43,249.83v-96.7c-9.06,0-16.41,7.34-16.41,16.4v200.09c0,9.06,7.34,16.4,16.41,16.4v-136.19Z"/>
      <path class="cls-4" d="m382.73,269.36v-62.07h-93.84l-4.81-11.51h-90.58l-103.14,11.47c-.07,0-.13,0-.2.04v62.07h292.58Z"/>
      <path class="cls-4" d="m899.69,202.62c0-8.72,7.09-15.82,15.81-15.82h129.27c-10.48-65.78-34.68-118.72-54.09-152.75-14.62-25.59-44.14-38.76-72.94-32.51-20.17,4.38-37.23,17.79-46.29,36.35l-34.21,70.07c-32.68,66.96-115.42,67.46-136.25,65.35-59.68-5.98-114.33-9.67-163.75-11.72v45.7h-126.07v62.07h638.52c.72-17.58.28-34.59-1.08-50.94h-133.1c-8.72,0-15.81-7.07-15.81-15.81Zm-335.67,43.37c-9.8,0-17.73-7.94-17.73-17.73s7.94-17.73,17.73-17.73,17.73,7.94,17.73,17.73-7.94,17.73-17.73,17.73Zm51.98,0c-9.8,0-17.73-7.94-17.73-17.73s7.94-17.73,17.73-17.73,17.73,7.94,17.73,17.73-7.94,17.73-17.73,17.73Zm51.98,0c-9.79,0-17.73-7.94-17.73-17.73s7.94-17.73,17.73-17.73,17.73,7.94,17.73,17.73-7.94,17.73-17.73,17.73Z"/>
      <path class="cls-5" d="m411.16,339.4h104.67c11.81,0,21.4,9.63,21.4,21.41,0,3.74-.96,7.26-2.65,10.31,108.76-7.98,217.98-22.59,311.67-41.58,6.69-1.36,13.31-2.73,19.83-4.13,75.64-16.22,139.87-35.33,183.59-56.04H411.16v70.03Z"/>
      <path class="cls-5" d="m251.19,360.81c0-11.81,9.6-21.41,21.4-21.41h110.14v-70.03H90.15v81.64c3.11,1.14,6.32,2.14,9.63,2.94,42.74,10.43,94.48,17.19,151.69,20.79,1.72.11,3.45.21,5.17.32-3.38-3.78-5.46-8.76-5.46-14.24Z"/>
      <path class="cls-1" d="m271.86,166.56c-15.94,1.49-29.03,3.02-39.17,4.35-16.12,2.07-30.47,11.17-39.2,24.88h90.58l-12.22-29.23Z"/>
      <path class="cls-9" d="m90.15,207.29c-26.86,3.04-47.15,25.82-47.15,52.88v9.2h47.15v-62.07Z"/>
      <path class="cls-8" d="m43,269.36c0,44.79,18.56,70.87,47.15,81.64v-81.64h-47.15Z"/>
      <path class="cls-7" d="m899.69,202.62c0,8.74,7.09,15.81,15.81,15.81h179.69c8.72,0,15.81-7.07,15.81-15.81h-211.31Z"/>
      <path class="cls-10" d="m899.69,202.62h211.31c0-8.7-7.09-15.82-15.81-15.82h-179.69c-8.72,0-15.81,7.09-15.81,15.82Z"/>
      <path class="cls-10" d="m288.89,207.29h93.84v-82.83h-55.49c-11.79,0-21.35-9.56-21.35-21.35h184.61c0,11.79-9.56,21.35-21.36,21.35h-57.97v82.83h126.07V56.68c0-21.64-16.97-39.48-38.58-40.56l-231.52-11.57c-29.84-1.5-51.02,28.66-39.5,56.22l44.22,105.8,12.22,29.23,4.81,11.51Z"/>
      <path class="cls-2" d="m411.16,124.47h57.97c11.79,0,21.36-9.56,21.36-21.35h-184.61c0,11.79,9.56,21.35,21.35,21.35h55.49v214.93h28.44V124.47Z"/>
      <path class="cls-8" d="m667.99,210.52c-9.79,0-17.73,7.94-17.73,17.73s7.94,17.73,17.73,17.73,17.73-7.94,17.73-17.73-7.94-17.73-17.73-17.73Z"/>
      <path class="cls-8" d="m616,210.52c-9.8,0-17.73,7.94-17.73,17.73s7.94,17.73,17.73,17.73,17.73-7.94,17.73-17.73-7.94-17.73-17.73-17.73Z"/>
      <path class="cls-8" d="m564.02,210.52c-9.8,0-17.73,7.94-17.73,17.73s7.94,17.73,17.73,17.73,17.73-7.94,17.73-17.73-7.94-17.73-17.73-17.73Z"/>
      <path class="cls-7" d="m251.19,360.81c0,5.48,2.07,10.46,5.46,14.24,3.92,4.39,9.61,7.16,15.95,7.16h243.25c8.07,0,15.11-4.48,18.75-11.09,1.69-3.06,2.65-6.57,2.65-10.31H251.19Z"/>
      <path class="cls-10" d="m272.59,339.4c-11.81,0-21.4,9.6-21.4,21.41h286.05c0-11.78-9.59-21.41-21.4-21.41h-243.25Z"/>
    </g>
  </g>
</svg>
